<mxfile host="Electron" agent="Mozilla/5.0 (X11; Linux x86_64) AppleWebKit/537.36 (KHTML, like Gecko) draw.io/24.7.8 Chrome/128.0.6613.36 Electron/32.0.1 Safari/537.36" version="24.7.8">
  <diagram id="C5RBs43oDa-KdzZeNtuy" name="Page-1">
    <mxGraphModel dx="1434" dy="846" grid="1" gridSize="10" guides="1" tooltips="1" connect="1" arrows="1" fold="1" page="1" pageScale="1" pageWidth="827" pageHeight="1169" background="#99CCFF" math="0" shadow="0">
      <root>
        <mxCell id="WIyWlLk6GJQsqaUBKTNV-0" />
        <mxCell id="WIyWlLk6GJQsqaUBKTNV-1" parent="WIyWlLk6GJQsqaUBKTNV-0" />
        <mxCell id="gaTeEfwATAB_G2GzuzBx-0" value="Menu Console" style="ellipse;whiteSpace=wrap;html=1;labelBackgroundColor=none;fillColor=#FAE5C7;strokeColor=#0F8B8D;fontColor=#143642;" parent="WIyWlLk6GJQsqaUBKTNV-1" vertex="1">
          <mxGeometry x="60" y="20" width="120" height="80" as="geometry" />
        </mxCell>
        <mxCell id="gaTeEfwATAB_G2GzuzBx-5" value="Exit" style="ellipse;whiteSpace=wrap;html=1;labelBackgroundColor=none;fillColor=#FAE5C7;strokeColor=#0F8B8D;fontColor=#143642;" parent="WIyWlLk6GJQsqaUBKTNV-1" vertex="1">
          <mxGeometry x="690" y="220" width="120" height="80" as="geometry" />
        </mxCell>
        <mxCell id="gaTeEfwATAB_G2GzuzBx-16" value="Command Console" style="ellipse;whiteSpace=wrap;html=1;labelBackgroundColor=none;fillColor=#FAE5C7;strokeColor=#0F8B8D;fontColor=#143642;" parent="WIyWlLk6GJQsqaUBKTNV-1" vertex="1">
          <mxGeometry x="380" y="250" width="120" height="80" as="geometry" />
        </mxCell>
        <mxCell id="gaTeEfwATAB_G2GzuzBx-33" value="Game Design" style="rhombus;whiteSpace=wrap;html=1;labelBackgroundColor=none;fillColor=#FAE5C7;strokeColor=#0F8B8D;fontColor=#143642;" parent="WIyWlLk6GJQsqaUBKTNV-1" vertex="1">
          <mxGeometry x="110" y="355" width="100" height="90" as="geometry" />
        </mxCell>
        <mxCell id="gaTeEfwATAB_G2GzuzBx-34" value="" style="endArrow=classic;html=1;rounded=0;exitX=0.4;exitY=0.975;exitDx=0;exitDy=0;exitPerimeter=0;entryX=0.5;entryY=0;entryDx=0;entryDy=0;labelBackgroundColor=none;strokeColor=#A8201A;fontColor=default;" parent="WIyWlLk6GJQsqaUBKTNV-1" source="gaTeEfwATAB_G2GzuzBx-0" target="gaTeEfwATAB_G2GzuzBx-33" edge="1">
          <mxGeometry width="50" height="50" relative="1" as="geometry">
            <mxPoint x="159.96000000000004" y="290" as="sourcePoint" />
            <mxPoint x="160" y="360" as="targetPoint" />
          </mxGeometry>
        </mxCell>
        <mxCell id="gaTeEfwATAB_G2GzuzBx-69" value="Enter&lt;div&gt;&lt;br&gt;&lt;/div&gt;" style="edgeLabel;html=1;align=center;verticalAlign=middle;resizable=0;points=[];labelBackgroundColor=none;fontColor=#143642;" parent="gaTeEfwATAB_G2GzuzBx-34" vertex="1" connectable="0">
          <mxGeometry x="-0.0008" y="2" relative="1" as="geometry">
            <mxPoint as="offset" />
          </mxGeometry>
        </mxCell>
        <mxCell id="gaTeEfwATAB_G2GzuzBx-35" value="Cutscene Console" style="ellipse;whiteSpace=wrap;html=1;labelBackgroundColor=none;fillColor=#FAE5C7;strokeColor=#0F8B8D;fontColor=#143642;" parent="WIyWlLk6GJQsqaUBKTNV-1" vertex="1">
          <mxGeometry x="250" y="360" width="120" height="80" as="geometry" />
        </mxCell>
        <mxCell id="gaTeEfwATAB_G2GzuzBx-36" value="Room Console" style="ellipse;whiteSpace=wrap;html=1;labelBackgroundColor=none;fillColor=#FAE5C7;strokeColor=#0F8B8D;fontColor=#143642;" parent="WIyWlLk6GJQsqaUBKTNV-1" vertex="1">
          <mxGeometry x="90" y="610" width="120" height="80" as="geometry" />
        </mxCell>
        <mxCell id="gaTeEfwATAB_G2GzuzBx-38" value="" style="endArrow=classic;html=1;rounded=0;entryX=0.5;entryY=0;entryDx=0;entryDy=0;exitX=0.5;exitY=1;exitDx=0;exitDy=0;labelBackgroundColor=none;strokeColor=#A8201A;fontColor=default;" parent="WIyWlLk6GJQsqaUBKTNV-1" source="gaTeEfwATAB_G2GzuzBx-33" target="gaTeEfwATAB_G2GzuzBx-36" edge="1">
          <mxGeometry width="50" height="50" relative="1" as="geometry">
            <mxPoint x="390" y="410" as="sourcePoint" />
            <mxPoint x="440" y="360" as="targetPoint" />
          </mxGeometry>
        </mxCell>
        <mxCell id="gaTeEfwATAB_G2GzuzBx-39" value="" style="endArrow=classic;html=1;rounded=0;entryX=0;entryY=0.5;entryDx=0;entryDy=0;exitX=1;exitY=0.5;exitDx=0;exitDy=0;labelBackgroundColor=none;strokeColor=#A8201A;fontColor=default;" parent="WIyWlLk6GJQsqaUBKTNV-1" source="gaTeEfwATAB_G2GzuzBx-33" target="gaTeEfwATAB_G2GzuzBx-35" edge="1">
          <mxGeometry width="50" height="50" relative="1" as="geometry">
            <mxPoint x="390" y="410" as="sourcePoint" />
            <mxPoint x="440" y="360" as="targetPoint" />
          </mxGeometry>
        </mxCell>
        <mxCell id="gaTeEfwATAB_G2GzuzBx-41" value="" style="endArrow=classic;html=1;rounded=0;exitX=0.3;exitY=1;exitDx=0;exitDy=0;exitPerimeter=0;labelBackgroundColor=none;strokeColor=#A8201A;fontColor=default;" parent="WIyWlLk6GJQsqaUBKTNV-1" source="gaTeEfwATAB_G2GzuzBx-35" target="gaTeEfwATAB_G2GzuzBx-36" edge="1">
          <mxGeometry width="50" height="50" relative="1" as="geometry">
            <mxPoint x="310" y="530" as="sourcePoint" />
            <mxPoint x="440" y="360" as="targetPoint" />
          </mxGeometry>
        </mxCell>
        <mxCell id="gaTeEfwATAB_G2GzuzBx-70" value="Enter" style="edgeLabel;html=1;align=center;verticalAlign=middle;resizable=0;points=[];labelBackgroundColor=none;fontColor=#143642;" parent="gaTeEfwATAB_G2GzuzBx-41" vertex="1" connectable="0">
          <mxGeometry x="0.0207" y="2" relative="1" as="geometry">
            <mxPoint x="-1" as="offset" />
          </mxGeometry>
        </mxCell>
        <mxCell id="gaTeEfwATAB_G2GzuzBx-50" value="Saved Game Place&lt;div&gt;Room Console&lt;/div&gt;" style="ellipse;whiteSpace=wrap;html=1;labelBackgroundColor=none;fillColor=#FAE5C7;strokeColor=#0F8B8D;fontColor=#143642;" parent="WIyWlLk6GJQsqaUBKTNV-1" vertex="1">
          <mxGeometry x="560" y="430" width="120" height="80" as="geometry" />
        </mxCell>
        <mxCell id="gaTeEfwATAB_G2GzuzBx-52" value="" style="endArrow=classic;html=1;rounded=0;entryX=0.208;entryY=0.075;entryDx=0;entryDy=0;entryPerimeter=0;labelBackgroundColor=none;strokeColor=#A8201A;fontColor=default;" parent="WIyWlLk6GJQsqaUBKTNV-1" source="gaTeEfwATAB_G2GzuzBx-16" target="gaTeEfwATAB_G2GzuzBx-50" edge="1">
          <mxGeometry width="50" height="50" relative="1" as="geometry">
            <mxPoint x="510" y="170" as="sourcePoint" />
            <mxPoint x="440" y="240" as="targetPoint" />
          </mxGeometry>
        </mxCell>
        <mxCell id="gaTeEfwATAB_G2GzuzBx-60" value="&lt;span style=&quot;background-color: rgb(251, 251, 251);&quot;&gt;Command, Enter&lt;/span&gt;" style="edgeLabel;html=1;align=center;verticalAlign=middle;resizable=0;points=[];labelBackgroundColor=none;fontColor=#143642;" parent="gaTeEfwATAB_G2GzuzBx-52" vertex="1" connectable="0">
          <mxGeometry x="-0.1039" y="-3" relative="1" as="geometry">
            <mxPoint as="offset" />
          </mxGeometry>
        </mxCell>
        <mxCell id="gaTeEfwATAB_G2GzuzBx-53" value="" style="endArrow=classic;html=1;rounded=0;entryX=0;entryY=1;entryDx=0;entryDy=0;labelBackgroundColor=none;strokeColor=#A8201A;fontColor=default;" parent="WIyWlLk6GJQsqaUBKTNV-1" source="gaTeEfwATAB_G2GzuzBx-16" target="gaTeEfwATAB_G2GzuzBx-5" edge="1">
          <mxGeometry width="50" height="50" relative="1" as="geometry">
            <mxPoint x="510" y="170" as="sourcePoint" />
            <mxPoint x="440" y="240" as="targetPoint" />
          </mxGeometry>
        </mxCell>
        <mxCell id="gaTeEfwATAB_G2GzuzBx-59" value="&lt;span style=&quot;background-color: rgb(251, 251, 251);&quot;&gt;Command, Enter&lt;/span&gt;" style="edgeLabel;html=1;align=center;verticalAlign=middle;resizable=0;points=[];labelBackgroundColor=none;fontColor=#143642;" parent="gaTeEfwATAB_G2GzuzBx-53" vertex="1" connectable="0">
          <mxGeometry x="0.0937" y="-3" relative="1" as="geometry">
            <mxPoint y="1" as="offset" />
          </mxGeometry>
        </mxCell>
        <mxCell id="gaTeEfwATAB_G2GzuzBx-57" value="" style="endArrow=classic;startArrow=classic;html=1;rounded=0;entryX=0;entryY=0.5;entryDx=0;entryDy=0;labelBackgroundColor=none;strokeColor=#A8201A;fontColor=default;" parent="WIyWlLk6GJQsqaUBKTNV-1" source="gaTeEfwATAB_G2GzuzBx-0" target="gaTeEfwATAB_G2GzuzBx-16" edge="1">
          <mxGeometry width="50" height="50" relative="1" as="geometry">
            <mxPoint x="390" y="410" as="sourcePoint" />
            <mxPoint x="440" y="360" as="targetPoint" />
          </mxGeometry>
        </mxCell>
        <mxCell id="gaTeEfwATAB_G2GzuzBx-58" value="&lt;span style=&quot;background-color: rgb(251, 251, 251);&quot;&gt;Command&lt;/span&gt;" style="edgeLabel;html=1;align=center;verticalAlign=middle;resizable=0;points=[];labelBackgroundColor=none;fontColor=#143642;" parent="gaTeEfwATAB_G2GzuzBx-57" vertex="1" connectable="0">
          <mxGeometry x="-0.0313" y="-3" relative="1" as="geometry">
            <mxPoint as="offset" />
          </mxGeometry>
        </mxCell>
        <mxCell id="gaTeEfwATAB_G2GzuzBx-63" value="Command Console" style="ellipse;whiteSpace=wrap;html=1;labelBackgroundColor=none;fillColor=#FAE5C7;strokeColor=#0F8B8D;fontColor=#143642;" parent="WIyWlLk6GJQsqaUBKTNV-1" vertex="1">
          <mxGeometry x="380" y="530" width="120" height="80" as="geometry" />
        </mxCell>
        <mxCell id="gaTeEfwATAB_G2GzuzBx-64" value="" style="endArrow=classic;html=1;rounded=0;entryX=0.5;entryY=1;entryDx=0;entryDy=0;exitX=0.5;exitY=0;exitDx=0;exitDy=0;labelBackgroundColor=none;strokeColor=#A8201A;fontColor=default;" parent="WIyWlLk6GJQsqaUBKTNV-1" source="gaTeEfwATAB_G2GzuzBx-63" target="gaTeEfwATAB_G2GzuzBx-16" edge="1">
          <mxGeometry width="50" height="50" relative="1" as="geometry">
            <mxPoint x="390" y="410" as="sourcePoint" />
            <mxPoint x="440" y="360" as="targetPoint" />
          </mxGeometry>
        </mxCell>
        <mxCell id="gaTeEfwATAB_G2GzuzBx-68" value="Command, Enter" style="edgeLabel;html=1;align=center;verticalAlign=middle;resizable=0;points=[];labelBackgroundColor=none;fontColor=#143642;" parent="gaTeEfwATAB_G2GzuzBx-64" vertex="1" connectable="0">
          <mxGeometry x="-0.1397" y="1" relative="1" as="geometry">
            <mxPoint as="offset" />
          </mxGeometry>
        </mxCell>
        <mxCell id="gaTeEfwATAB_G2GzuzBx-71" value="" style="endArrow=classic;startArrow=classic;html=1;rounded=0;exitX=0.917;exitY=0.25;exitDx=0;exitDy=0;exitPerimeter=0;entryX=0.333;entryY=0;entryDx=0;entryDy=0;entryPerimeter=0;labelBackgroundColor=none;strokeColor=#A8201A;fontColor=default;" parent="WIyWlLk6GJQsqaUBKTNV-1" source="gaTeEfwATAB_G2GzuzBx-35" target="gaTeEfwATAB_G2GzuzBx-35" edge="1">
          <mxGeometry width="50" height="50" relative="1" as="geometry">
            <mxPoint x="390" y="410" as="sourcePoint" />
            <mxPoint x="300" y="300" as="targetPoint" />
            <Array as="points">
              <mxPoint x="340" y="320" />
            </Array>
          </mxGeometry>
        </mxCell>
        <mxCell id="gaTeEfwATAB_G2GzuzBx-72" value="Enter" style="edgeLabel;html=1;align=center;verticalAlign=middle;resizable=0;points=[];labelBackgroundColor=none;fontColor=#143642;" parent="gaTeEfwATAB_G2GzuzBx-71" vertex="1" connectable="0">
          <mxGeometry x="-0.3888" relative="1" as="geometry">
            <mxPoint as="offset" />
          </mxGeometry>
        </mxCell>
        <mxCell id="gaTeEfwATAB_G2GzuzBx-73" value="Inventory Console" style="ellipse;whiteSpace=wrap;html=1;labelBackgroundColor=none;fillColor=#FAE5C7;strokeColor=#0F8B8D;fontColor=#143642;" parent="WIyWlLk6GJQsqaUBKTNV-1" vertex="1">
          <mxGeometry x="380" y="740" width="120" height="80" as="geometry" />
        </mxCell>
        <mxCell id="gaTeEfwATAB_G2GzuzBx-78" value="" style="endArrow=classic;html=1;rounded=0;exitX=1;exitY=0.375;exitDx=0;exitDy=0;exitPerimeter=0;labelBackgroundColor=none;strokeColor=#A8201A;fontColor=default;" parent="WIyWlLk6GJQsqaUBKTNV-1" source="gaTeEfwATAB_G2GzuzBx-36" target="gaTeEfwATAB_G2GzuzBx-63" edge="1">
          <mxGeometry width="50" height="50" relative="1" as="geometry">
            <mxPoint x="390" y="530" as="sourcePoint" />
            <mxPoint x="440" y="480" as="targetPoint" />
          </mxGeometry>
        </mxCell>
        <mxCell id="gaTeEfwATAB_G2GzuzBx-79" value="Command" style="edgeLabel;html=1;align=center;verticalAlign=middle;resizable=0;points=[];labelBackgroundColor=none;fontColor=#143642;" parent="gaTeEfwATAB_G2GzuzBx-78" vertex="1" connectable="0">
          <mxGeometry x="-0.0659" y="-3" relative="1" as="geometry">
            <mxPoint as="offset" />
          </mxGeometry>
        </mxCell>
        <mxCell id="gaTeEfwATAB_G2GzuzBx-80" value="" style="endArrow=classic;html=1;rounded=0;entryX=0.5;entryY=1;entryDx=0;entryDy=0;labelBackgroundColor=none;strokeColor=#A8201A;fontColor=default;" parent="WIyWlLk6GJQsqaUBKTNV-1" source="gaTeEfwATAB_G2GzuzBx-73" target="gaTeEfwATAB_G2GzuzBx-63" edge="1">
          <mxGeometry width="50" height="50" relative="1" as="geometry">
            <mxPoint x="530" y="660" as="sourcePoint" />
            <mxPoint x="712" y="604" as="targetPoint" />
          </mxGeometry>
        </mxCell>
        <mxCell id="gaTeEfwATAB_G2GzuzBx-81" value="Command" style="edgeLabel;html=1;align=center;verticalAlign=middle;resizable=0;points=[];labelBackgroundColor=none;fontColor=#143642;" parent="gaTeEfwATAB_G2GzuzBx-80" vertex="1" connectable="0">
          <mxGeometry x="-0.0659" y="-3" relative="1" as="geometry">
            <mxPoint as="offset" />
          </mxGeometry>
        </mxCell>
        <mxCell id="gaTeEfwATAB_G2GzuzBx-82" value="" style="endArrow=classic;html=1;rounded=0;labelBackgroundColor=none;strokeColor=#A8201A;fontColor=default;" parent="WIyWlLk6GJQsqaUBKTNV-1" source="gaTeEfwATAB_G2GzuzBx-36" target="gaTeEfwATAB_G2GzuzBx-73" edge="1">
          <mxGeometry width="50" height="50" relative="1" as="geometry">
            <mxPoint x="250" y="760" as="sourcePoint" />
            <mxPoint x="432" y="704" as="targetPoint" />
          </mxGeometry>
        </mxCell>
        <mxCell id="gaTeEfwATAB_G2GzuzBx-83" value="Command" style="edgeLabel;html=1;align=center;verticalAlign=middle;resizable=0;points=[];labelBackgroundColor=none;fontColor=#143642;" parent="gaTeEfwATAB_G2GzuzBx-82" vertex="1" connectable="0">
          <mxGeometry x="-0.0659" y="-3" relative="1" as="geometry">
            <mxPoint as="offset" />
          </mxGeometry>
        </mxCell>
        <mxCell id="gaTeEfwATAB_G2GzuzBx-84" value="" style="endArrow=classic;html=1;rounded=0;exitX=0.125;exitY=0.238;exitDx=0;exitDy=0;exitPerimeter=0;labelBackgroundColor=none;strokeColor=#A8201A;fontColor=default;" parent="WIyWlLk6GJQsqaUBKTNV-1" source="gaTeEfwATAB_G2GzuzBx-63" target="gaTeEfwATAB_G2GzuzBx-36" edge="1">
          <mxGeometry width="50" height="50" relative="1" as="geometry">
            <mxPoint x="300" y="570" as="sourcePoint" />
            <mxPoint x="290" y="370" as="targetPoint" />
          </mxGeometry>
        </mxCell>
        <mxCell id="gaTeEfwATAB_G2GzuzBx-85" value="Command, Enter" style="edgeLabel;html=1;align=center;verticalAlign=middle;resizable=0;points=[];labelBackgroundColor=none;fontColor=#143642;" parent="gaTeEfwATAB_G2GzuzBx-84" vertex="1" connectable="0">
          <mxGeometry x="-0.1397" y="1" relative="1" as="geometry">
            <mxPoint as="offset" />
          </mxGeometry>
        </mxCell>
        <mxCell id="gaTeEfwATAB_G2GzuzBx-86" value="" style="endArrow=classic;html=1;rounded=0;entryX=1;entryY=0;entryDx=0;entryDy=0;exitX=0.792;exitY=0.925;exitDx=0;exitDy=0;exitPerimeter=0;labelBackgroundColor=none;strokeColor=#A8201A;fontColor=default;" parent="WIyWlLk6GJQsqaUBKTNV-1" source="gaTeEfwATAB_G2GzuzBx-63" target="gaTeEfwATAB_G2GzuzBx-73" edge="1">
          <mxGeometry width="50" height="50" relative="1" as="geometry">
            <mxPoint x="540" y="650" as="sourcePoint" />
            <mxPoint x="530" y="450" as="targetPoint" />
          </mxGeometry>
        </mxCell>
        <mxCell id="gaTeEfwATAB_G2GzuzBx-87" value="Command, Enter" style="edgeLabel;html=1;align=center;verticalAlign=middle;resizable=0;points=[];labelBackgroundColor=none;fontColor=#143642;" parent="gaTeEfwATAB_G2GzuzBx-86" vertex="1" connectable="0">
          <mxGeometry x="-0.1397" y="1" relative="1" as="geometry">
            <mxPoint as="offset" />
          </mxGeometry>
        </mxCell>
        <mxCell id="gaTeEfwATAB_G2GzuzBx-90" value="" style="endArrow=classic;startArrow=classic;html=1;rounded=0;exitX=0.667;exitY=0;exitDx=0;exitDy=0;exitPerimeter=0;entryX=0;entryY=0;entryDx=0;entryDy=0;labelBackgroundColor=none;strokeColor=#A8201A;fontColor=default;" parent="WIyWlLk6GJQsqaUBKTNV-1" source="gaTeEfwATAB_G2GzuzBx-16" target="gaTeEfwATAB_G2GzuzBx-16" edge="1">
          <mxGeometry width="50" height="50" relative="1" as="geometry">
            <mxPoint x="400" y="190" as="sourcePoint" />
            <mxPoint x="330" y="170" as="targetPoint" />
            <Array as="points">
              <mxPoint x="420" y="180" />
            </Array>
          </mxGeometry>
        </mxCell>
        <mxCell id="gaTeEfwATAB_G2GzuzBx-91" value="Command, Enter" style="edgeLabel;html=1;align=center;verticalAlign=middle;resizable=0;points=[];labelBackgroundColor=none;fontColor=#143642;" parent="gaTeEfwATAB_G2GzuzBx-90" vertex="1" connectable="0">
          <mxGeometry x="-0.3888" relative="1" as="geometry">
            <mxPoint x="-1" as="offset" />
          </mxGeometry>
        </mxCell>
        <mxCell id="gaTeEfwATAB_G2GzuzBx-92" value="" style="endArrow=classic;startArrow=classic;html=1;rounded=0;exitX=0.992;exitY=0.3;exitDx=0;exitDy=0;exitPerimeter=0;entryX=0.633;entryY=0.038;entryDx=0;entryDy=0;entryPerimeter=0;labelBackgroundColor=none;strokeColor=#A8201A;fontColor=default;" parent="WIyWlLk6GJQsqaUBKTNV-1" source="gaTeEfwATAB_G2GzuzBx-63" target="gaTeEfwATAB_G2GzuzBx-63" edge="1">
          <mxGeometry width="50" height="50" relative="1" as="geometry">
            <mxPoint x="512" y="518" as="sourcePoint" />
            <mxPoint x="450" y="530" as="targetPoint" />
            <Array as="points">
              <mxPoint x="490" y="470" />
            </Array>
          </mxGeometry>
        </mxCell>
        <mxCell id="gaTeEfwATAB_G2GzuzBx-93" value="Command, Enter" style="edgeLabel;html=1;align=center;verticalAlign=middle;resizable=0;points=[];labelBackgroundColor=none;fontColor=#143642;" parent="gaTeEfwATAB_G2GzuzBx-92" vertex="1" connectable="0">
          <mxGeometry x="-0.3888" relative="1" as="geometry">
            <mxPoint x="-1" as="offset" />
          </mxGeometry>
        </mxCell>
        <mxCell id="gaTeEfwATAB_G2GzuzBx-94" value="" style="endArrow=classic;html=1;rounded=0;entryX=0.775;entryY=0.95;entryDx=0;entryDy=0;entryPerimeter=0;exitX=-0.025;exitY=0.588;exitDx=0;exitDy=0;exitPerimeter=0;labelBackgroundColor=none;strokeColor=#A8201A;fontColor=default;" parent="WIyWlLk6GJQsqaUBKTNV-1" source="gaTeEfwATAB_G2GzuzBx-73" target="gaTeEfwATAB_G2GzuzBx-36" edge="1">
          <mxGeometry width="50" height="50" relative="1" as="geometry">
            <mxPoint x="160" y="800" as="sourcePoint" />
            <mxPoint x="210" y="750" as="targetPoint" />
          </mxGeometry>
        </mxCell>
        <mxCell id="gaTeEfwATAB_G2GzuzBx-95" value="Enter" style="edgeLabel;html=1;align=center;verticalAlign=middle;resizable=0;points=[];labelBackgroundColor=none;fontColor=#143642;" parent="gaTeEfwATAB_G2GzuzBx-94" vertex="1" connectable="0">
          <mxGeometry x="-0.0673" y="3" relative="1" as="geometry">
            <mxPoint as="offset" />
          </mxGeometry>
        </mxCell>
        <mxCell id="gaTeEfwATAB_G2GzuzBx-96" value="Dialog Console" style="ellipse;whiteSpace=wrap;html=1;labelBackgroundColor=none;fillColor=#FAE5C7;strokeColor=#0F8B8D;fontColor=#143642;" parent="WIyWlLk6GJQsqaUBKTNV-1" vertex="1">
          <mxGeometry x="70" y="920" width="120" height="80" as="geometry" />
        </mxCell>
        <mxCell id="gaTeEfwATAB_G2GzuzBx-97" value="" style="endArrow=classic;html=1;rounded=0;exitX=0.375;exitY=1.013;exitDx=0;exitDy=0;exitPerimeter=0;labelBackgroundColor=none;strokeColor=#A8201A;fontColor=default;" parent="WIyWlLk6GJQsqaUBKTNV-1" source="gaTeEfwATAB_G2GzuzBx-36" target="gaTeEfwATAB_G2GzuzBx-101" edge="1">
          <mxGeometry width="50" height="50" relative="1" as="geometry">
            <mxPoint x="100" y="920" as="sourcePoint" />
            <mxPoint x="150" y="870" as="targetPoint" />
          </mxGeometry>
        </mxCell>
        <mxCell id="gaTeEfwATAB_G2GzuzBx-98" value="Word" style="edgeLabel;html=1;align=center;verticalAlign=middle;resizable=0;points=[];labelBackgroundColor=none;fontColor=#143642;" parent="gaTeEfwATAB_G2GzuzBx-97" vertex="1" connectable="0">
          <mxGeometry x="0.0594" relative="1" as="geometry">
            <mxPoint as="offset" />
          </mxGeometry>
        </mxCell>
        <mxCell id="gaTeEfwATAB_G2GzuzBx-99" value="" style="endArrow=classic;startArrow=classic;html=1;rounded=0;exitX=0.258;exitY=0.95;exitDx=0;exitDy=0;exitPerimeter=0;entryX=0.792;entryY=0.938;entryDx=0;entryDy=0;entryPerimeter=0;labelBackgroundColor=none;strokeColor=#A8201A;fontColor=default;" parent="WIyWlLk6GJQsqaUBKTNV-1" source="gaTeEfwATAB_G2GzuzBx-96" target="gaTeEfwATAB_G2GzuzBx-96" edge="1">
          <mxGeometry width="50" height="50" relative="1" as="geometry">
            <mxPoint x="389" y="1060" as="sourcePoint" />
            <mxPoint x="439" y="1010" as="targetPoint" />
            <Array as="points">
              <mxPoint x="130" y="1080" />
            </Array>
          </mxGeometry>
        </mxCell>
        <mxCell id="gaTeEfwATAB_G2GzuzBx-100" value="Digit" style="edgeLabel;html=1;align=center;verticalAlign=middle;resizable=0;points=[];labelBackgroundColor=none;fontColor=#143642;" parent="gaTeEfwATAB_G2GzuzBx-99" vertex="1" connectable="0">
          <mxGeometry x="0.2134" y="-4" relative="1" as="geometry">
            <mxPoint x="1" as="offset" />
          </mxGeometry>
        </mxCell>
        <mxCell id="gaTeEfwATAB_G2GzuzBx-101" value="Word Processor" style="shape=hexagon;perimeter=hexagonPerimeter2;whiteSpace=wrap;html=1;fixedSize=1;labelBackgroundColor=none;fillColor=#FAE5C7;strokeColor=#0F8B8D;fontColor=#143642;" parent="WIyWlLk6GJQsqaUBKTNV-1" vertex="1">
          <mxGeometry x="170" y="820" width="120" height="80" as="geometry" />
        </mxCell>
        <mxCell id="gaTeEfwATAB_G2GzuzBx-103" value="" style="endArrow=classic;html=1;rounded=0;labelBackgroundColor=none;strokeColor=#A8201A;fontColor=default;" parent="WIyWlLk6GJQsqaUBKTNV-1" source="gaTeEfwATAB_G2GzuzBx-73" target="gaTeEfwATAB_G2GzuzBx-101" edge="1">
          <mxGeometry width="50" height="50" relative="1" as="geometry">
            <mxPoint x="370" y="870" as="sourcePoint" />
            <mxPoint x="432" y="979" as="targetPoint" />
          </mxGeometry>
        </mxCell>
        <mxCell id="gaTeEfwATAB_G2GzuzBx-104" value="Word" style="edgeLabel;html=1;align=center;verticalAlign=middle;resizable=0;points=[];labelBackgroundColor=none;fontColor=#143642;" parent="gaTeEfwATAB_G2GzuzBx-103" vertex="1" connectable="0">
          <mxGeometry x="0.0594" relative="1" as="geometry">
            <mxPoint as="offset" />
          </mxGeometry>
        </mxCell>
        <mxCell id="gaTeEfwATAB_G2GzuzBx-106" value="" style="endArrow=classic;html=1;rounded=0;exitX=1;exitY=0;exitDx=0;exitDy=0;entryX=0.25;entryY=0.988;entryDx=0;entryDy=0;entryPerimeter=0;labelBackgroundColor=none;strokeColor=#A8201A;fontColor=default;" parent="WIyWlLk6GJQsqaUBKTNV-1" source="gaTeEfwATAB_G2GzuzBx-96" target="gaTeEfwATAB_G2GzuzBx-101" edge="1">
          <mxGeometry width="50" height="50" relative="1" as="geometry">
            <mxPoint x="390" y="770" as="sourcePoint" />
            <mxPoint x="320" y="1041" as="targetPoint" />
          </mxGeometry>
        </mxCell>
        <mxCell id="gaTeEfwATAB_G2GzuzBx-107" value="Digit" style="edgeLabel;html=1;align=center;verticalAlign=middle;resizable=0;points=[];labelBackgroundColor=none;fontColor=#143642;" parent="gaTeEfwATAB_G2GzuzBx-106" vertex="1" connectable="0">
          <mxGeometry x="0.126" y="-5" relative="1" as="geometry">
            <mxPoint as="offset" />
          </mxGeometry>
        </mxCell>
        <mxCell id="gaTeEfwATAB_G2GzuzBx-108" value="" style="shape=flexArrow;endArrow=classic;html=1;rounded=0;entryX=0.658;entryY=1.025;entryDx=0;entryDy=0;entryPerimeter=0;labelBackgroundColor=none;strokeColor=#A8201A;fontColor=default;" parent="WIyWlLk6GJQsqaUBKTNV-1" source="gaTeEfwATAB_G2GzuzBx-101" target="gaTeEfwATAB_G2GzuzBx-73" edge="1">
          <mxGeometry width="50" height="50" relative="1" as="geometry">
            <mxPoint x="280" y="870" as="sourcePoint" />
            <mxPoint x="530" y="900" as="targetPoint" />
            <Array as="points">
              <mxPoint x="410" y="920" />
            </Array>
          </mxGeometry>
        </mxCell>
        <mxCell id="gaTeEfwATAB_G2GzuzBx-109" value="" style="shape=flexArrow;endArrow=classic;html=1;rounded=0;labelBackgroundColor=none;strokeColor=#A8201A;fontColor=default;" parent="WIyWlLk6GJQsqaUBKTNV-1" source="gaTeEfwATAB_G2GzuzBx-101" target="gaTeEfwATAB_G2GzuzBx-36" edge="1">
          <mxGeometry width="50" height="50" relative="1" as="geometry">
            <mxPoint x="20" y="850" as="sourcePoint" />
            <mxPoint x="100" y="700" as="targetPoint" />
            <Array as="points">
              <mxPoint x="50" y="770" />
            </Array>
          </mxGeometry>
        </mxCell>
        <mxCell id="gaTeEfwATAB_G2GzuzBx-110" value="" style="shape=flexArrow;endArrow=classic;html=1;rounded=0;entryX=0.275;entryY=0.038;entryDx=0;entryDy=0;entryPerimeter=0;exitX=0;exitY=0.5;exitDx=0;exitDy=0;labelBackgroundColor=none;strokeColor=#A8201A;fontColor=default;" parent="WIyWlLk6GJQsqaUBKTNV-1" source="gaTeEfwATAB_G2GzuzBx-101" target="gaTeEfwATAB_G2GzuzBx-96" edge="1">
          <mxGeometry width="50" height="50" relative="1" as="geometry">
            <mxPoint x="50" y="840" as="sourcePoint" />
            <mxPoint x="90" y="850" as="targetPoint" />
            <Array as="points">
              <mxPoint x="50" y="840" />
            </Array>
          </mxGeometry>
        </mxCell>
        <mxCell id="gaTeEfwATAB_G2GzuzBx-112" value="" style="shape=flexArrow;endArrow=classic;html=1;rounded=0;entryX=0.617;entryY=1;entryDx=0;entryDy=0;entryPerimeter=0;exitX=0.842;exitY=0.963;exitDx=0;exitDy=0;exitPerimeter=0;labelBackgroundColor=none;strokeColor=#A8201A;fontColor=default;" parent="WIyWlLk6GJQsqaUBKTNV-1" source="gaTeEfwATAB_G2GzuzBx-101" target="gaTeEfwATAB_G2GzuzBx-5" edge="1">
          <mxGeometry width="50" height="50" relative="1" as="geometry">
            <mxPoint x="320" y="970" as="sourcePoint" />
            <mxPoint x="645" y="910" as="targetPoint" />
            <Array as="points">
              <mxPoint x="470" y="1000" />
              <mxPoint x="620" y="930" />
            </Array>
          </mxGeometry>
        </mxCell>
        <mxCell id="0nENkqKh0bP6LEZ6vYn7-0" value="" style="curved=1;endArrow=classic;html=1;rounded=0;" edge="1" parent="WIyWlLk6GJQsqaUBKTNV-1" source="gaTeEfwATAB_G2GzuzBx-50" target="gaTeEfwATAB_G2GzuzBx-36">
          <mxGeometry width="50" height="50" relative="1" as="geometry">
            <mxPoint x="390" y="460" as="sourcePoint" />
            <mxPoint x="440" y="410" as="targetPoint" />
            <Array as="points">
              <mxPoint x="390" y="410" />
            </Array>
          </mxGeometry>
        </mxCell>
      </root>
    </mxGraphModel>
  </diagram>
</mxfile>
